<?xml version="1.0" encoding="utf-8"?>
<!DOCTYPE svg PUBLIC "-//W3C//DTD SVG 1.0//EN" "http://www.w3.org/TR/2001/REC-SVG-20010904/DTD/svg10.dtd">
<svg version="1.0" xmlns="http://www.w3.org/2000/svg" width="4096px" height="500px"
    viewBox="0 0 4096 500" preserveAspectRatio="xMidYMid meet">
    <g fill="#5E6364">
        <path
            d="M931.7 468.5 c-0.4 -12.6 -0.7 -39.3 -0.7 -59.2 0 -31.6 0.2 -36.3 1.5 -36.3 0.8 0 1.5 0.5 1.5 1 0 0.7 23.9 1 69.8 1 38.3 0 99.1 0.3 135 0.7 l65.2 0.6 0 57.7 0 57.7 -135.8 -0.1 -135.9 -0.1 -0.6 -23z" />
        <path
            d="M1447.2 433.8 l0.3 -58.3 66.4 -0.3 c47 -0.1 66.8 -0.5 67.8 -1.3 1.1 -1 1.3 2.2 1.4 18.7 0.2 36 -0.1 74.7 -0.8 87.2 l-0.6 12.2 -67.3 0 -67.4 0 0.2 -58.2z" />
        <path
            d="M1787.6 487.6 c-0.4 -2.5 -0.9 -29.3 -1.1 -59.5 -0.4 -48.1 -0.3 -55.1 1 -55.1 0.8 0 1.5 0.5 1.5 1 0 0.7 18.9 1 54.8 1 30.1 0 60.4 0.3 67.5 0.7 l12.7 0.6 0 57.9 0 57.8 -67.9 0 -67.9 0 -0.6 -4.4z" />
        <path
            d="M2166.5 472.8 c-0.8 -22.8 -0.3 -456 0.6 -455 1.2 1.4 32.3 43.6 49.1 66.7 9.7 13.2 24.4 33 32.8 44 8.3 11 42.2 56 75.3 100 72.6 96.7 79.4 105.5 81.2 105.5 2.6 0 1.6 2.9 -2.6 7.5 -4.2 4.6 -13.1 16.1 -26.6 34.5 -4.2 5.8 -11.7 15.9 -16.7 22.5 -4.9 6.6 -15.1 20.1 -22.4 30 -7.4 9.9 -16.2 21.6 -19.5 26 -3.2 4.4 -11.1 14.6 -17.5 22.8 l-11.6 14.7 -60.7 0 -60.7 0 -0.7 -19.2z" />
        <path
            d="M3052.6 482 c-1 -15.1 -0.7 -109 0.3 -109 0.5 0 1.1 0.5 1.3 1 0.2 0.7 43 1.1 129.3 1.1 71 0.1 140.4 0.4 154.3 0.8 l25.3 0.6 -0.1 56.9 c0 31.3 -0.2 57.1 -0.4 57.3 -0.2 0.2 -69.9 0.5 -154.9 0.6 l-154.4 0.2 -0.7 -9.5z" />
        <path
            d="M3052 253.5 c0 -39 0.3 -59.5 1 -59.5 0.6 0 1 0.3 1 0.8 0 0.4 64.7 0.6 143.8 0.4 79 -0.1 148.7 0.1 154.7 0.5 l11 0.8 -0.3 52 c-0.1 28.6 -0.5 53.9 -0.8 56.2 -0.4 3.2 -1 4.4 -2.7 4.9 -1.2 0.4 -70.3 0.8 -153.6 0.8 -120.2 0.1 -151.5 0.4 -151.9 1.4 -1.8 5.5 -2.2 -5.1 -2.2 -58.3z" />
        <path
            d="M460.8 282.8 c-0.9 -0.7 -4 -4.2 -6.9 -7.8 -6.8 -8.3 -8.7 -10.2 -18.4 -18.2 -18.3 -15 -38.5 -25.1 -58 -28.9 -9.6 -1.9 -72.2 -2.6 -214.2 -2.4 -97 0.1 -132 -0.1 -131.4 -0.9 0.6 -0.7 -0.3 -3 -2.5 -6.6 -19.1 -29.8 -24.7 -66.1 -16.2 -103.5 2.5 -10.9 5.5 -17.7 13.8 -31.5 10 -16.5 17.6 -25.8 29 -35.4 20.2 -16.9 41.3 -27.3 62.9 -31 8.4 -1.4 29 -1.6 188.2 -1.6 98.4 0 178.9 0.2 178.9 0.5 0 0.3 0 60.1 0 133 l0 132.5 -10.5 0 c-8.5 0 -10.7 0.3 -11.1 1.5 -0.7 1.8 -1.5 1.9 -3.6 0.3z" />
        <path
            d="M4054.3 280.8 c-2.9 -4.8 -16.8 -19.3 -24.3 -25.3 -22.2 -17.7 -43.2 -26.4 -69.5 -28.7 -7.7 -0.7 -67.8 -1.1 -167.5 -1.3 -177.3 -0.2 -165.8 -0.1 -165.6 -1.7 0 -0.7 -2.5 -6 -5.6 -11.8 -6.8 -12.6 -13 -30.7 -15.3 -44.9 -2.5 -14.7 -1.6 -36 1.9 -48.8 7.7 -27.7 21.3 -50.2 42.3 -69.4 10.2 -9.4 34.1 -23.3 48.3 -28.1 17.4 -6 11.2 -5.8 205.4 -5.8 l177.6 0 0 133 0 133 -11.5 0 c-9.6 0 -11.5 0.3 -11.5 1.5 0 2.6 -2.7 1.6 -4.7 -1.7z" />
        <path
            d="M1786 147.5 c0 -2.8 0.4 -3.5 2 -3.5 1.6 0 2 0.7 2 3.5 0 2.8 -0.4 3.5 -2 3.5 -1.6 0 -2 -0.7 -2 -3.5z" />
        <path
            d="M1582.1 132.3 c-0.1 -1 -14.3 -1.3 -67.6 -1.3 l-67.5 0 0 -58 0 -58 22.3 0.1 c12.2 0 42.5 -0.2 67.4 -0.5 l45.2 -0.5 0.5 5.2 c0.9 8.8 1.4 103.9 0.6 109.2 -0.4 2.8 -0.8 4.4 -0.9 3.8z" />
        <path
            d="M1787.7 132.3 c-0.5 -0.7 -1.1 -95.1 -0.8 -111.4 l0.1 -6.7 68.8 0.3 68.7 0.4 0 58 0 58.1 -67.2 0 c-44.2 0 -67.3 0.3 -67.3 1 0 1.2 -1.7 1.3 -2.3 0.3z" />
        <path
            d="M3052 73.3 l0 -59.6 10.7 0.6 c5.8 0.4 76.1 0.7 156.1 0.7 l145.5 0 -0.6 56.6 c-0.3 31.1 -0.8 56.8 -1.1 57.1 -0.3 0.3 -69.5 0.7 -153.8 1 -131 0.4 -153.5 0.7 -154.4 1.9 -0.6 0.8 -1.4 1.4 -1.8 1.4 -0.3 0 -0.6 -26.8 -0.6 -59.7z" />
    </g>
    <g fill="#9AA1A8">
        <path
            d="M726 430.6 l0 -62.6 104 0.1 104 0.1 -0.1 3.6 c0 2 0.2 29.9 0.5 62 l0.5 58.2 -91.7 0 c-50.4 0 -97.4 0.3 -104.4 0.7 l-12.8 0.6 0 -62.7z" />
        <path
            d="M2885.6 253.9 l0.3 -239.4 84.5 -0.3 84.6 -0.2 0 57.2 c0 31.5 -0.3 59 -0.7 61.1 l-0.6 3.8 -81.6 -0.3 -81.6 -0.3 0 26 0 26 81.6 0.3 81.6 0.2 0.7 6.2 c0.8 7.8 0.8 112.1 0 118 l-0.6 4.6 -81.7 -0.2 -81.6 -0.1 0 25.5 0 25.5 8.5 0.6 c4.7 0.3 40.4 0.7 79.5 0.8 39 0.1 71.9 0.4 73.2 0.7 3.1 0.8 3.2 2.8 3.5 66.7 l0.3 55.7 -68 0 c-37.4 0 -75.7 0.3 -85 0.7 l-17.1 0.6 0.2 -239.4z" />
        <path
            d="M1579.4 478.8 c0.3 -7.3 0.6 -33.6 0.6 -58.5 0 -28.6 0.4 -45.4 1 -45.8 0.6 -0.3 1 -2.1 1 -3.8 l0 -3.2 103.5 0 103.5 0 0.1 3.5 c0.1 1.9 0.3 26 0.4 53.5 0.2 27.5 0.6 53.9 1 58.8 l0.7 8.7 -106.3 0 -106.2 0 0.7 -13.2z" />
        <path
            d="M2285 491.2 c0 -1.2 4.4 -7.3 15.5 -21.2 5 -6.3 13.1 -16.9 18 -23.5 9.2 -12.4 22.5 -30.2 38.1 -51 5 -6.6 12.5 -16.7 16.7 -22.5 20.8 -28.4 29.5 -39 32.1 -39 0.7 0 1.9 -0.7 2.6 -1.5 0.7 -0.8 1.5 -1.5 1.9 -1.5 0.4 0 3 3.5 5.8 7.8 2.9 4.2 8.2 11.8 11.8 16.7 3.7 5 8.1 11 9.8 13.4 3 4.3 7.9 10.8 50.2 67.6 9.8 13.2 20.4 27.2 23.6 31 8.6 10.6 11.9 16.3 11.9 20.7 l0 3.8 -119 0 c-65.4 0 -119 -0.4 -119 -0.8z" />
        <path
            d="M152.5 284.8 c-17 -0.4 -34.6 -1.2 -39 -1.8 -26.2 -3.6 -50.3 -17.1 -75.7 -42.4 -12.5 -12.3 -14.3 -15.6 -8.8 -15.6 1.7 0 3.3 -0.6 3.5 -1.3 0.4 -1 29.9 -1.2 144.3 -1.3 147.2 -0.1 191.8 0.5 203.2 2.5 27.9 5.1 59.3 24.7 78.8 49.4 2.5 3.1 4.8 5.7 5.2 5.7 0.5 0 0.7 1.1 0.6 2.4 l-0.1 2.3 -71 0.7 c-83.2 0.7 -197 0.5 -241 -0.6z" />
        <path
            d="M3751 285 c-35.7 -0.8 -40.3 -1.1 -52 -4.1 -23.3 -5.8 -42.4 -17.4 -63.6 -38.3 -13.8 -13.8 -16.2 -17.6 -10.9 -17.6 1.4 0 2.8 -0.6 3.1 -1.3 0.4 -1.1 29.2 -1.3 163.2 -1.2 89.5 0.1 166.3 0.5 170.7 0.9 27.6 2.4 48.9 11 71.5 29.1 8.7 7 22.9 22.1 24.7 26.5 0.9 1.9 1.9 4.2 2.3 5 0.6 1.3 -15 1.5 -137.4 1.6 -76 0 -153.2 -0.3 -171.6 -0.6z" />
        <path
            d="M1786 148 c0 -4.2 0.3 -5 1.9 -5 1.6 0 1.9 0.8 1.9 5 0.1 4.3 -0.2 5 -1.9 5 -1.6 0 -1.9 -0.7 -1.9 -5z" />
        <path
            d="M1582 134.3 c0 -1.8 -0.4 -3.3 -0.8 -3.3 -0.4 0 -0.9 -23.1 -1 -51.2 -0.1 -28.2 -0.5 -54.6 -0.8 -58.5 l-0.6 -7.3 105.6 0 105.7 0 -0.2 12.2 c-0.1 6.8 -0.1 34.3 0 61.2 0.1 26.8 0 49 -0.2 49.2 -0.2 0.2 -47 0.5 -104 0.6 l-103.7 0.3 0 -3.2z" />
    </g>
    <g fill="#F4F5F6">
        <path
            d="M9 358.8 l0 -133.8 9.6 0 9.5 0 12.2 12.2 c25.8 25.7 49.9 39.2 76.2 42.8 14.5 1.9 72.2 2.6 210.6 2.4 l136.6 -0.1 6.6 13.1 c7.4 14.7 10.8 24.3 13.9 39.6 4.8 23.9 1.5 52.2 -9 76 -5.1 11.8 -20.8 34.5 -29.3 42.6 -16 15.2 -43.8 30.1 -64.9 34.8 -14.5 3.3 -34.6 3.7 -203.7 4 l-168.3 0.3 0 -133.9z" />
        <path
            d="M3604.3 438.6 c0.4 -29.7 0.7 -89.9 0.7 -133.8 l0 -79.8 9.4 0 9.4 0 14 13.9 c28.2 28.1 52.4 39.8 87.1 42.3 8.8 0.6 78.4 1.1 173.6 1.2 87.5 0.1 159.5 0.5 160.2 0.9 1.1 0.7 2.1 2.5 10.5 18.7 9 17.6 13.5 39.5 12.5 61.5 -0.7 13.6 -0.8 14.6 -3.3 26.2 -2.6 12.2 -8.4 24.6 -19.2 41.3 -10.3 15.9 -16.3 22.6 -28.2 31.5 -16.9 12.5 -36.1 21.8 -53 25.6 -15.1 3.4 -40.7 3.9 -209.9 4.2 l-164.4 0.2 0.6 -53.9z" />
        <path
            d="M2519.4 489.7 c0.7 -2.8 -2.9 -8.9 -11.3 -19.2 -3.2 -3.8 -13.8 -17.8 -23.6 -31 -42.4 -56.9 -47.2 -63.4 -50.2 -67.6 -1.7 -2.4 -6 -8.2 -9.4 -12.9 -3.4 -4.7 -8.8 -12.3 -12 -17 -5.5 -8.1 -5.7 -8.5 -4.1 -10.6 0.9 -1.2 13 -17.2 26.8 -35.5 23.5 -31.2 58.5 -77.4 68.1 -89.9 2.3 -3 7.3 -9.6 11 -14.6 7.3 -9.9 20.2 -27 27.1 -36.2 2.4 -3.1 7.1 -9.5 10.5 -14.1 3.4 -4.6 8.8 -11.8 12 -16 19.1 -25.2 56.3 -75 61.7 -82.6 3.5 -4.9 8.4 -11.5 10.8 -14.5 2.5 -3 4.9 -6.5 5.5 -7.8 0.6 -1.2 1.3 -2.2 1.6 -2.2 0.3 0 0.6 106.6 0.6 237 l0 237 -62.9 0 -62.8 0 0.6 -2.3z" />
        <path
            d="M3047.8 372.5 c-0.2 -0.3 -32.6 -0.5 -71.9 -0.6 -39.3 -0.1 -75.2 -0.4 -79.9 -0.8 l-8.5 -0.6 0 -28.5 0 -28.5 67.5 -0.1 c37.1 -0.1 74.6 0.1 83.3 0.4 l15.7 0.4 0 29.4 0 29.4 -2.8 0 c-1.6 0 -3.1 -0.2 -3.4 -0.5z" />
        <path
            d="M795.3 371.3 l-69.3 -0.3 0 -178.4 0 -178.3 104 -0.2 104 -0.2 0 178.5 0 178.6 -17.7 0 c-9.8 0 -25.4 0.2 -34.8 0.3 -9.3 0.2 -48.2 0.2 -86.2 0z" />
        <path
            d="M1677.6 371.3 c-0.1 -0.1 -20.9 -0.3 -46.1 -0.4 -25.3 -0.1 -46.8 -0.3 -47.7 -0.6 -1.7 -0.4 -1.8 -6.9 -1.8 -117.8 0 -103.4 0.2 -117.4 1.5 -117.9 1.1 -0.4 185.9 -1 204.7 -0.6 1.6 0 1.7 7.5 1.1 117.8 -0.3 64.7 -0.7 117.9 -1 118.2 -0.2 0.2 -3.9 0.6 -8.1 0.7 -9.3 0.4 -102.3 0.9 -102.6 0.6z" />
        <path
            d="M2966.5 191 l-79 -0.5 0 -29 0 -29 64 0 c35.2 0 72.7 0.1 83.3 0.3 l19.2 0.3 0 28.8 0 28.9 -2.2 0.6 c-1.3 0.3 -3.2 0.5 -4.3 0.3 -1.1 -0.1 -37.5 -0.4 -81 -0.7z" />
    </g>
</svg>