<?xml version="1.0" encoding="utf-8"?>
<!DOCTYPE svg PUBLIC "-//W3C//DTD SVG 1.0//EN" "http://www.w3.org/TR/2001/REC-SVG-20010904/DTD/svg10.dtd">
<svg version="1.0" xmlns="http://www.w3.org/2000/svg" width="4096px" height="500px"
    viewBox="0 0 4096 500" preserveAspectRatio="xMidYMid meet">
    <g fill="#5E6364">
        <path
            d="M460.8 282.8 c-0.9 -0.7 -4 -4.2 -6.9 -7.8 -6.8 -8.3 -8.7 -10.2 -18.4 -18.2 -18.3 -15 -38.5 -25.1
    -58 -28.9 -9.6 -1.9 -72.2 -2.6 -214.2 -2.4 -97 0.1 -132 -0.1 -131.4 -0.9 0.6 -0.7 -0.3 -3 -2.5
    -6.6 -19.1 -29.8 -24.7 -66.1 -16.2 -103.5 2.5 -10.9 5.5 -17.7 13.8 -31.5 10 -16.5 17.6 -25.8 29
    -35.4 20.2 -16.9 41.3 -27.3 62.9 -31 8.4 -1.4 29 -1.6 188.2 -1.6 98.4 0 178.9 0.2 178.9 0.5 0
    0.3 0 60.1 0 133 l0 132.5 -10.5 0 c-8.5 0 -10.7 0.3 -11.1 1.5 -0.7 1.8 -1.5 1.9 -3.6 0.3z" />
    </g>
    <g fill="#9AA1A8">
        <path
            d="M152.5 284.8 c-17 -0.4 -34.6 -1.2 -39 -1.8 -26.2 -3.6 -50.3 -17.1 -75.7 -42.4 -12.5 -12.3 -14.3 -15.6 -8.8 -15.6 1.7 0 3.3 -0.6 3.5 -1.3 0.4 -1 29.9 -1.2 144.3 -1.3 147.2 -0.1 191.8 0.5 203.2 2.5 27.9 5.1 59.3 24.7 78.8 49.4 2.5 3.1 4.8 5.7 5.2 5.7 0.5 0 0.7 1.1 0.6 2.4 l-0.1 2.3 -71 0.7 c-83.2 0.7 -197 0.5 -241 -0.6z" />
    </g>
    <g fill="#F4F5F6">
        <path
            d="M9 358.8 l0 -133.8 9.6 0 9.5 0 12.2 12.2 c25.8 25.7 49.9 39.2 76.2 42.8 14.5 1.9 72.2 2.6 210.6 2.4 l136.6 -0.1 6.6 13.1 c7.4 14.7 10.8 24.3 13.9 39.6 4.8 23.9 1.5 52.2 -9 76 -5.1 11.8 -20.8 34.5 -29.3 42.6 -16 15.2 -43.8 30.1 -64.9 34.8 -14.5 3.3 -34.6 3.7 -203.7 4 l-168.3 0.3 0 -133.9z" />
    </g>
</svg>